<svg width="89" height="20" viewBox="0 0 89 20" fill="none" xmlns="http://www.w3.org/2000/svg">
<path d="M11.696 19L8.456 14.32H8.264H4.88V19H0.992V2.2H8.264C9.752 2.2 11.04 2.448 12.128 2.944C13.232 3.44 14.08 4.144 14.672 5.056C15.264 5.968 15.56 7.048 15.56 8.296C15.56 9.544 15.256 10.624 14.648 11.536C14.056 12.432 13.208 13.12 12.104 13.6L15.872 19H11.696ZM11.624 8.296C11.624 7.352 11.32 6.632 10.712 6.136C10.104 5.624 9.216 5.368 8.048 5.368H4.88V11.224H8.048C9.216 11.224 10.104 10.968 10.712 10.456C11.32 9.944 11.624 9.224 11.624 8.296ZM31.1244 12.592C31.1244 12.64 31.1004 12.976 31.0524 13.6H21.2844C21.4604 14.4 21.8764 15.032 22.5324 15.496C23.1884 15.96 24.0044 16.192 24.9804 16.192C25.6524 16.192 26.2444 16.096 26.7564 15.904C27.2844 15.696 27.7724 15.376 28.2204 14.944L30.2124 17.104C28.9964 18.496 27.2204 19.192 24.8844 19.192C23.4284 19.192 22.1404 18.912 21.0204 18.352C19.9004 17.776 19.0364 16.984 18.4284 15.976C17.8204 14.968 17.5164 13.824 17.5164 12.544C17.5164 11.28 17.8124 10.144 18.4044 9.136C19.0124 8.112 19.8364 7.32 20.8764 6.76C21.9324 6.184 23.1084 5.896 24.4044 5.896C25.6684 5.896 26.8124 6.168 27.8364 6.712C28.8604 7.256 29.6604 8.04 30.2364 9.064C30.8284 10.072 31.1244 11.248 31.1244 12.592ZM24.4284 8.728C23.5804 8.728 22.8684 8.968 22.2924 9.448C21.7164 9.928 21.3644 10.584 21.2364 11.416H27.5964C27.4684 10.6 27.1164 9.952 26.5404 9.472C25.9644 8.976 25.2604 8.728 24.4284 8.728ZM33.7171 1.192H37.4611V19H33.7171V1.192ZM53.8518 6.088L48.4038 19H44.5398L39.1158 6.088H42.9798L46.5558 14.872L50.2518 6.088H53.8518ZM55.4796 6.088H59.2236V19H55.4796V6.088ZM57.3516 4.288C56.6636 4.288 56.1036 4.088 55.6716 3.688C55.2396 3.288 55.0236 2.792 55.0236 2.2C55.0236 1.608 55.2396 1.112 55.6716 0.711999C56.1036 0.311999 56.6636 0.111999 57.3516 0.111999C58.0396 0.111999 58.5996 0.303999 59.0316 0.688C59.4636 1.072 59.6796 1.552 59.6796 2.128C59.6796 2.752 59.4636 3.272 59.0316 3.688C58.5996 4.088 58.0396 4.288 57.3516 4.288ZM67.1423 19.192C66.0703 19.192 65.0223 19.064 63.9983 18.808C62.9743 18.536 62.1583 18.2 61.5503 17.8L62.7983 15.112C63.3743 15.48 64.0703 15.784 64.8863 16.024C65.7023 16.248 66.5023 16.36 67.2863 16.36C68.8703 16.36 69.6623 15.968 69.6623 15.184C69.6623 14.816 69.4463 14.552 69.0143 14.392C68.5823 14.232 67.9183 14.096 67.0223 13.984C65.9663 13.824 65.0943 13.64 64.4063 13.432C63.7183 13.224 63.1183 12.856 62.6063 12.328C62.1103 11.8 61.8623 11.048 61.8623 10.072C61.8623 9.256 62.0943 8.536 62.5583 7.912C63.0383 7.272 63.7263 6.776 64.6223 6.424C65.5343 6.072 66.6063 5.896 67.8383 5.896C68.7503 5.896 69.6543 6 70.5503 6.208C71.4623 6.4 72.2143 6.672 72.8063 7.024L71.5583 9.688C70.4223 9.048 69.1823 8.728 67.8383 8.728C67.0383 8.728 66.4383 8.84 66.0383 9.064C65.6383 9.288 65.4383 9.576 65.4383 9.928C65.4383 10.328 65.6543 10.608 66.0863 10.768C66.5183 10.928 67.2063 11.08 68.1503 11.224C69.2063 11.4 70.0703 11.592 70.7423 11.8C71.4143 11.992 71.9983 12.352 72.4943 12.88C72.9903 13.408 73.2383 14.144 73.2383 15.088C73.2383 15.888 72.9983 16.6 72.5183 17.224C72.0383 17.848 71.3343 18.336 70.4063 18.688C69.4943 19.024 68.4063 19.192 67.1423 19.192ZM88.2963 12.592C88.2963 12.64 88.2723 12.976 88.2243 13.6H78.4563C78.6323 14.4 79.0483 15.032 79.7043 15.496C80.3603 15.96 81.1763 16.192 82.1523 16.192C82.8243 16.192 83.4163 16.096 83.9283 15.904C84.4563 15.696 84.9443 15.376 85.3923 14.944L87.3843 17.104C86.1683 18.496 84.3923 19.192 82.0563 19.192C80.6003 19.192 79.3123 18.912 78.1923 18.352C77.0723 17.776 76.2083 16.984 75.6003 15.976C74.9923 14.968 74.6883 13.824 74.6883 12.544C74.6883 11.28 74.9843 10.144 75.5763 9.136C76.1843 8.112 77.0083 7.32 78.0483 6.76C79.1043 6.184 80.2803 5.896 81.5763 5.896C82.8403 5.896 83.9843 6.168 85.0083 6.712C86.0323 7.256 86.8323 8.04 87.4083 9.064C88.0003 10.072 88.2963 11.248 88.2963 12.592ZM81.6003 8.728C80.7523 8.728 80.0403 8.968 79.4643 9.448C78.8883 9.928 78.5363 10.584 78.4083 11.416H84.7683C84.6403 10.6 84.2883 9.952 83.7123 9.472C83.1363 8.976 82.4323 8.728 81.6003 8.728Z" fill="#252B42"/>
<path d="M11.696 19L10.8738 19.5692L11.172 20H11.696V19ZM8.456 14.32L9.27819 13.7508L8.97995 13.32H8.456V14.32ZM4.88 14.32V13.32H3.88V14.32H4.88ZM4.88 19V20H5.88V19H4.88ZM0.992 19H-0.0079999V20H0.992V19ZM0.992 2.2V1.2H-0.0079999V2.2H0.992ZM12.128 2.944L11.7132 3.85392L11.7182 3.85617L12.128 2.944ZM14.648 11.536L13.8159 10.9813L13.8137 10.9847L14.648 11.536ZM12.104 13.6L11.7053 12.6829L10.5847 13.1701L11.2839 14.1722L12.104 13.6ZM15.872 19V20H17.7892L16.6921 18.4278L15.872 19ZM10.712 6.136L10.0679 6.90091L10.0738 6.90593L10.0799 6.91086L10.712 6.136ZM4.88 5.368V4.368H3.88V5.368H4.88ZM4.88 11.224H3.88V12.224H4.88V11.224ZM10.712 10.456L11.3561 11.2209L11.3561 11.2209L10.712 10.456ZM12.5182 18.4308L9.27819 13.7508L7.63381 14.8892L10.8738 19.5692L12.5182 18.4308ZM8.456 13.32H8.264V15.32H8.456V13.32ZM8.264 13.32H4.88V15.32H8.264V13.32ZM3.88 14.32V19H5.88V14.32H3.88ZM4.88 18H0.992V20H4.88V18ZM1.992 19V2.2H-0.0079999V19H1.992ZM0.992 3.2H8.264V1.2H0.992V3.2ZM8.264 3.2C9.6429 3.2 10.7832 3.42993 11.7132 3.85391L12.5428 2.03409C11.2968 1.46607 9.8611 1.2 8.264 1.2V3.2ZM11.7182 3.85617C12.6673 4.2826 13.3575 4.86761 13.8332 5.60047L15.5108 4.51153C14.8025 3.42039 13.7967 2.5974 12.5378 2.03183L11.7182 3.85617ZM13.8332 5.60047C14.3051 6.32743 14.56 7.21195 14.56 8.296H16.56C16.56 6.88405 16.2229 5.60857 15.5108 4.51153L13.8332 5.60047ZM14.56 8.296C14.56 9.37479 14.2998 10.2556 13.816 10.9813L15.4801 12.0907C16.2122 10.9924 16.56 9.71321 16.56 8.296H14.56ZM13.8137 10.9847C13.341 11.7001 12.6539 12.2705 11.7053 12.6829L12.5027 14.5171C13.7621 13.9695 14.771 13.1639 15.4823 12.0873L13.8137 10.9847ZM11.2839 14.1722L15.0519 19.5722L16.6921 18.4278L12.9241 13.0278L11.2839 14.1722ZM15.872 18H11.696V20H15.872V18ZM12.624 8.296C12.624 7.11907 12.2326 6.08596 11.3441 5.36113L10.0799 6.91086C10.4074 7.17804 10.624 7.58493 10.624 8.296H12.624ZM11.3561 5.37109C10.4998 4.64999 9.34414 4.368 8.048 4.368V6.368C9.08786 6.368 9.70817 6.59801 10.0679 6.90091L11.3561 5.37109ZM8.048 4.368H4.88V6.368H8.048V4.368ZM3.88 5.368V11.224H5.88V5.368H3.88ZM4.88 12.224H8.048V10.224H4.88V12.224ZM8.048 12.224C9.34414 12.224 10.4998 11.942 11.3561 11.2209L10.0679 9.69109C9.70817 9.99399 9.08786 10.224 8.048 10.224V12.224ZM11.3561 11.2209C12.2286 10.4862 12.624 9.4641 12.624 8.296H10.624C10.624 8.9839 10.4114 9.40181 10.0679 9.69109L11.3561 11.2209ZM31.0524 13.6V14.6H31.9785L32.0495 13.6767L31.0524 13.6ZM21.2844 13.6V12.6H20.0405L20.3078 13.8149L21.2844 13.6ZM22.5324 15.496L23.1099 14.6796L23.1099 14.6796L22.5324 15.496ZM26.7564 15.904L27.1076 16.8403L27.1153 16.8374L27.123 16.8344L26.7564 15.904ZM28.2204 14.944L28.9556 14.2661L28.2624 13.5144L27.5263 14.2242L28.2204 14.944ZM30.2124 17.104L30.9656 17.7619L31.5561 17.0859L30.9476 16.4261L30.2124 17.104ZM21.0204 18.352L20.5631 19.2413L20.5732 19.2464L21.0204 18.352ZM18.4284 15.976L17.5721 16.4925L17.5721 16.4925L18.4284 15.976ZM18.4044 9.136L17.5446 8.62546L17.5422 8.62958L18.4044 9.136ZM20.8764 6.76L21.3505 7.64048L21.3553 7.63789L20.8764 6.76ZM27.8364 6.712L28.3056 5.82888L28.3056 5.82888L27.8364 6.712ZM30.2364 9.064L29.3649 9.55426L29.3694 9.56238L29.3742 9.57042L30.2364 9.064ZM22.2924 9.448L21.6523 8.67978L21.6523 8.67978L22.2924 9.448ZM21.2364 11.416L20.2481 11.2639L20.0708 12.416H21.2364V11.416ZM27.5964 11.416V12.416H28.7655L28.5844 11.261L27.5964 11.416ZM26.5404 9.472L25.8879 10.2298L25.894 10.235L25.9003 10.2402L26.5404 9.472ZM30.1244 12.592C30.1244 12.5657 30.1256 12.5599 30.1219 12.6196C30.1192 12.6633 30.1149 12.7259 30.109 12.8088C30.0972 12.974 30.0793 13.2119 30.0554 13.5233L32.0495 13.6767C32.0946 13.0897 32.1244 12.6907 32.1244 12.592H30.1244ZM31.0524 12.6H21.2844V14.6H31.0524V12.6ZM20.3078 13.8149C20.5362 14.8529 21.0913 15.7015 21.955 16.3124L23.1099 14.6796C22.6616 14.3625 22.3847 13.9471 22.2611 13.3851L20.3078 13.8149ZM21.955 16.3124C22.8133 16.9195 23.8428 17.192 24.9804 17.192V15.192C24.1661 15.192 23.5636 15.0005 23.1099 14.6796L21.955 16.3124ZM24.9804 17.192C25.7458 17.192 26.4609 17.0828 27.1076 16.8403L26.4053 14.9677C26.028 15.1092 25.5591 15.192 24.9804 15.192V17.192ZM27.123 16.8344C27.7842 16.5739 28.3814 16.178 28.9146 15.6638L27.5263 14.2242C27.1635 14.574 26.7847 14.8181 26.3899 14.9736L27.123 16.8344ZM27.4853 15.6219L29.4773 17.7819L30.9476 16.4261L28.9556 14.2661L27.4853 15.6219ZM29.4593 16.4461C28.4812 17.5658 27.0137 18.192 24.8844 18.192V20.192C27.4272 20.192 29.5117 19.4262 30.9656 17.7619L29.4593 16.4461ZM24.8844 18.192C23.5584 18.192 22.4279 17.9377 21.4677 17.4576L20.5732 19.2464C21.853 19.8863 23.2984 20.192 24.8844 20.192V18.192ZM21.4778 17.4627C20.5108 16.9654 19.7902 16.2975 19.2847 15.4595L17.5721 16.4925C18.2827 17.6705 19.2901 18.5866 20.5631 19.2413L21.4778 17.4627ZM19.2847 15.4595C18.7789 14.6209 18.5164 13.6584 18.5164 12.544H16.5164C16.5164 13.9896 16.862 15.3151 17.5721 16.4925L19.2847 15.4595ZM18.5164 12.544C18.5164 11.4431 18.7722 10.4845 19.2667 9.64242L17.5422 8.62958C16.8527 9.80352 16.5164 11.1169 16.5164 12.544H18.5164ZM19.2643 9.64654C19.7805 8.77721 20.4717 8.1137 21.3505 7.64047L20.4023 5.87953C19.2012 6.5263 18.2444 7.44679 17.5446 8.62546L19.2643 9.64654ZM21.3553 7.63789C22.2531 7.14816 23.2624 6.896 24.4044 6.896V4.896C22.9544 4.896 21.6117 5.21984 20.3976 5.8821L21.3553 7.63789ZM24.4044 6.896C25.5199 6.896 26.5005 7.13464 27.3673 7.59512L28.3056 5.82888C27.1244 5.20136 25.817 4.896 24.4044 4.896V6.896ZM27.3673 7.59512C28.22 8.0481 28.8813 8.69467 29.3649 9.55426L31.108 8.57374C30.4395 7.38533 29.5009 6.4639 28.3056 5.82888L27.3673 7.59512ZM29.3742 9.57042C29.8632 10.4031 30.1244 11.399 30.1244 12.592H32.1244C32.1244 11.097 31.7937 9.74089 31.0987 8.55758L29.3742 9.57042ZM24.4284 7.728C23.379 7.728 22.4315 8.03044 21.6523 8.67978L22.9326 10.2162C23.3054 9.90556 23.7819 9.728 24.4284 9.728V7.728ZM21.6523 8.67978C20.8657 9.33523 20.4083 10.2227 20.2481 11.2639L22.2248 11.5681C22.3206 10.9453 22.5672 10.5208 22.9326 10.2162L21.6523 8.67978ZM21.2364 12.416H27.5964V10.416H21.2364V12.416ZM28.5844 11.261C28.4229 10.2314 27.9626 9.35541 27.1806 8.70378L25.9003 10.2402C26.2703 10.5486 26.514 10.9686 26.6085 11.571L28.5844 11.261ZM27.193 8.71423C26.4178 8.04675 25.4756 7.728 24.4284 7.728V9.728C25.0453 9.728 25.511 9.90524 25.8879 10.2298L27.193 8.71423ZM33.7171 1.192V0.191999H32.7171V1.192H33.7171ZM37.4611 1.192H38.4611V0.191999H37.4611V1.192ZM37.4611 19V20H38.4611V19H37.4611ZM33.7171 19H32.7171V20H33.7171V19ZM33.7171 2.192H37.4611V0.191999H33.7171V2.192ZM36.4611 1.192V19H38.4611V1.192H36.4611ZM37.4611 18H33.7171V20H37.4611V18ZM34.7171 19V1.192H32.7171V19H34.7171ZM53.8518 6.088L54.7732 6.47674L55.3591 5.088H53.8518V6.088ZM48.4038 19V20H49.0672L49.3252 19.3887L48.4038 19ZM44.5398 19L43.6179 19.3873L43.8752 20H44.5398V19ZM39.1158 6.088V5.088H37.6111L38.1939 6.47529L39.1158 6.088ZM42.9798 6.088L43.906 5.71094L43.6524 5.088H42.9798V6.088ZM46.5558 14.872L45.6296 15.2491L46.5406 17.4867L47.4775 15.2598L46.5558 14.872ZM50.2518 6.088V5.088H49.5877L49.3301 5.70017L50.2518 6.088ZM52.9305 5.69925L47.4825 18.6113L49.3252 19.3887L54.7732 6.47674L52.9305 5.69925ZM48.4038 18H44.5398V20H48.4038V18ZM45.4618 18.6127L40.0378 5.70071L38.1939 6.47529L43.6179 19.3873L45.4618 18.6127ZM39.1158 7.088H42.9798V5.088H39.1158V7.088ZM42.0536 6.46505L45.6296 15.2491L47.482 14.4949L43.906 5.71094L42.0536 6.46505ZM47.4775 15.2598L51.1735 6.47583L49.3301 5.70017L45.6341 14.4842L47.4775 15.2598ZM50.2518 7.088H53.8518V5.088H50.2518V7.088ZM55.4796 6.088V5.088H54.4796V6.088H55.4796ZM59.2236 6.088H60.2236V5.088H59.2236V6.088ZM59.2236 19V20H60.2236V19H59.2236ZM55.4796 19H54.4796V20H55.4796V19ZM55.6716 3.688L54.9922 4.42176L54.9922 4.42176L55.6716 3.688ZM55.6716 0.711999L56.351 1.44576L56.351 1.44576L55.6716 0.711999ZM59.0316 0.688L58.3672 1.43541L58.3672 1.43541L59.0316 0.688ZM59.0316 3.688L59.711 4.42176L59.7182 4.41511L59.7252 4.40832L59.0316 3.688ZM55.4796 7.088H59.2236V5.088H55.4796V7.088ZM58.2236 6.088V19H60.2236V6.088H58.2236ZM59.2236 18H55.4796V20H59.2236V18ZM56.4796 19V6.088H54.4796V19H56.4796ZM57.3516 3.288C56.8702 3.288 56.5674 3.15461 56.351 2.95424L54.9922 4.42176C55.6398 5.02139 56.4569 5.288 57.3516 5.288V3.288ZM56.351 2.95424C56.1247 2.74469 56.0236 2.51519 56.0236 2.2H54.0236C54.0236 3.06881 54.3545 3.83131 54.9922 4.42176L56.351 2.95424ZM56.0236 2.2C56.0236 1.88481 56.1247 1.65531 56.351 1.44576L54.9922 -0.0217616C54.3545 0.568684 54.0236 1.33119 54.0236 2.2H56.0236ZM56.351 1.44576C56.5674 1.24539 56.8702 1.112 57.3516 1.112V-0.888001C56.4569 -0.888001 55.6398 -0.621392 54.9922 -0.0217608L56.351 1.44576ZM57.3516 1.112C57.8438 1.112 58.1519 1.24405 58.3672 1.43541L59.6959 -0.059409C59.0472 -0.636053 58.2353 -0.888001 57.3516 -0.888001V1.112ZM58.3672 1.43541C58.5866 1.6304 58.6796 1.83877 58.6796 2.128H60.6796C60.6796 1.26523 60.3406 0.513603 59.6959 -0.0594097L58.3672 1.43541ZM58.6796 2.128C58.6796 2.49258 58.5655 2.74858 58.3379 2.96768L59.7252 4.40832C60.3617 3.79542 60.6796 3.01142 60.6796 2.128H58.6796ZM58.3522 2.95424C58.1358 3.15461 57.8329 3.288 57.3516 3.288V5.288C58.2462 5.288 59.0634 5.02139 59.711 4.42176L58.3522 2.95424ZM63.9983 18.808L63.7416 19.7745L63.7487 19.7764L63.7558 19.7781L63.9983 18.808ZM61.5503 17.8L60.6433 17.3789L60.28 18.1613L61.0007 18.6354L61.5503 17.8ZM62.7983 15.112L63.3367 14.2693L62.3729 13.6536L61.8913 14.6909L62.7983 15.112ZM64.8863 16.024L64.6041 16.9834L64.6128 16.9859L64.6216 16.9883L64.8863 16.024ZM69.0143 14.392L68.667 15.3297L68.667 15.3297L69.0143 14.392ZM67.0223 13.984L66.8725 14.9727L66.8854 14.9747L66.8983 14.9763L67.0223 13.984ZM64.4063 13.432L64.6957 12.4748L64.6957 12.4748L64.4063 13.432ZM62.6063 12.328L61.8775 13.0127L61.8829 13.0185L61.8884 13.0241L62.6063 12.328ZM62.5583 7.912L61.7583 7.31199L61.7559 7.3153L62.5583 7.912ZM64.6223 6.424L64.2622 5.49106L64.2567 5.49325L64.6223 6.424ZM70.5503 6.208L70.3242 7.1821L70.3342 7.18443L70.3443 7.18655L70.5503 6.208ZM72.8063 7.024L73.7119 7.44822L74.0963 6.6276L73.3174 6.16446L72.8063 7.024ZM71.5583 9.688L71.0675 10.5592L72.0066 11.0883L72.4639 10.1122L71.5583 9.688ZM66.0383 9.064L65.5497 8.19149L65.5497 8.19149L66.0383 9.064ZM66.0863 10.768L66.4336 9.83025L66.4336 9.83025L66.0863 10.768ZM68.1503 11.224L68.3147 10.2375L68.3011 10.2354L68.1503 11.224ZM70.7423 11.8L70.4466 12.7553L70.4571 12.7585L70.4676 12.7615L70.7423 11.8ZM72.4943 12.88L71.7655 13.5647L71.7655 13.5647L72.4943 12.88ZM72.5183 17.224L73.3109 17.8337L73.3109 17.8337L72.5183 17.224ZM70.4063 18.688L70.752 19.6264L70.761 19.623L70.4063 18.688ZM67.1423 18.192C66.1508 18.192 65.1843 18.0737 64.2408 17.8379L63.7558 19.7781C64.8603 20.0543 65.9898 20.192 67.1423 20.192V18.192ZM64.255 17.8415C63.2921 17.5857 62.5871 17.2851 62.0999 16.9646L61.0007 18.6354C61.7295 19.1149 62.6566 19.4863 63.7416 19.7745L64.255 17.8415ZM62.4573 18.2211L63.7053 15.5331L61.8913 14.6909L60.6433 17.3789L62.4573 18.2211ZM62.2599 15.9547C62.932 16.3841 63.7188 16.723 64.6041 16.9834L65.1685 15.0646C64.4219 14.845 63.8166 14.5759 63.3367 14.2693L62.2599 15.9547ZM64.6216 16.9883C65.517 17.2341 66.4061 17.36 67.2863 17.36V15.36C66.5985 15.36 65.8876 15.2619 65.151 15.0597L64.6216 16.9883ZM67.2863 17.36C68.1286 17.36 68.9082 17.261 69.5119 16.9622C69.8277 16.8059 70.126 16.5797 70.3432 16.2571C70.5651 15.9277 70.6623 15.5571 70.6623 15.184H68.6623C68.6623 15.2029 68.6605 15.1753 68.6844 15.1399C68.7037 15.1113 68.7049 15.1301 68.6247 15.1698C68.4364 15.263 68.028 15.36 67.2863 15.36V17.36ZM70.6623 15.184C70.6623 14.7887 70.5404 14.402 70.2743 14.0768C70.0209 13.7671 69.688 13.5751 69.3616 13.4543L68.667 15.3297C68.7726 15.3689 68.7637 15.3889 68.7264 15.3432C68.7066 15.3191 68.6879 15.2871 68.6756 15.2509C68.6635 15.2157 68.6623 15.1909 68.6623 15.184H70.6623ZM69.3616 13.4543C68.818 13.2529 68.0606 13.106 67.1463 12.9917L66.8983 14.9763C67.776 15.086 68.3466 15.2111 68.667 15.3297L69.3616 13.4543ZM67.1721 12.9953C66.143 12.8394 65.3218 12.6641 64.6957 12.4748L64.1169 14.3892C64.8668 14.6159 65.7896 14.8086 66.8725 14.9727L67.1721 12.9953ZM64.6957 12.4748C64.1743 12.3172 63.7208 12.0408 63.3242 11.6319L61.8884 13.0241C62.5159 13.6712 63.2623 14.1308 64.1169 14.3892L64.6957 12.4748ZM63.3352 11.6433C63.0665 11.3574 62.8623 10.8837 62.8623 10.072H60.8623C60.8623 11.2123 61.1541 12.2426 61.8775 13.0127L63.3352 11.6433ZM62.8623 10.072C62.8623 9.45963 63.0316 8.95132 63.3608 8.5087L61.7559 7.3153C61.157 8.12068 60.8623 9.05237 60.8623 10.072H62.8623ZM63.3583 8.512C63.7062 8.04809 64.2293 7.6528 64.988 7.35475L64.2567 5.49325C63.2233 5.8992 62.3704 6.49591 61.7583 7.312L63.3583 8.512ZM64.9824 7.35692C65.7539 7.05913 66.6987 6.896 67.8383 6.896V4.896C66.5139 4.896 65.3147 5.08487 64.2622 5.49108L64.9824 7.35692ZM67.8383 6.896C68.6735 6.896 69.5017 6.99116 70.3242 7.1821L70.7764 5.2339C69.8069 5.00884 68.8271 4.896 67.8383 4.896V6.896ZM70.3443 7.18655C71.1842 7.36336 71.8245 7.60361 72.2952 7.88354L73.3174 6.16446C72.6042 5.74039 71.7405 5.43664 70.7563 5.22945L70.3443 7.18655ZM71.9008 6.59977L70.6528 9.26377L72.4639 10.1122L73.7119 7.44822L71.9008 6.59977ZM72.0492 8.81675C70.7586 8.08968 69.3488 7.728 67.8383 7.728V9.728C69.0159 9.728 70.086 10.0063 71.0675 10.5592L72.0492 8.81675ZM67.8383 7.728C66.9778 7.728 66.1724 7.84278 65.5497 8.19149L66.5269 9.93651C66.7042 9.83722 67.0989 9.728 67.8383 9.728V7.728ZM65.5497 8.19149C64.9442 8.53058 64.4383 9.1032 64.4383 9.928H66.4383C66.4383 9.93608 66.4369 9.953 66.4303 9.97427C66.4236 9.99559 66.4149 10.0108 66.4097 10.0184C66.4007 10.0313 66.4202 9.99626 66.5269 9.9365L65.5497 8.19149ZM64.4383 9.928C64.4383 10.3186 64.548 10.7111 64.8085 11.0488C65.0609 11.376 65.3994 11.58 65.739 11.7057L66.4336 9.83025C66.3412 9.79603 66.3557 9.78 66.3921 9.8272C66.4101 9.8505 66.4238 9.87744 66.4319 9.90276C66.4395 9.92673 66.4383 9.93757 66.4383 9.928H64.4383ZM65.739 11.7057C66.2715 11.903 67.0438 12.0668 67.9995 12.2126L68.3011 10.2354C67.3688 10.0932 66.7651 9.95301 66.4336 9.83025L65.739 11.7057ZM67.9859 12.2104C69.0179 12.3824 69.8337 12.5656 70.4466 12.7553L71.038 10.8447C70.307 10.6184 69.3948 10.4176 68.3147 10.2376L67.9859 12.2104ZM70.4676 12.7615C70.9595 12.9021 71.3883 13.1632 71.7655 13.5647L73.2232 12.1953C72.6083 11.5408 71.8691 11.0819 71.017 10.8385L70.4676 12.7615ZM71.7655 13.5647C72.0395 13.8564 72.2383 14.3189 72.2383 15.088H74.2383C74.2383 13.9691 73.9411 12.9596 73.2232 12.1953L71.7655 13.5647ZM72.2383 15.088C72.2383 15.6713 72.0689 16.1681 71.7257 16.6143L73.3109 17.8337C73.9277 17.0319 74.2383 16.1047 74.2383 15.088H72.2383ZM71.7257 16.6143C71.3847 17.0575 70.8511 17.4498 70.0517 17.753L70.761 19.623C71.8175 19.2222 72.6919 18.6385 73.3109 17.8337L71.7257 16.6143ZM70.0606 17.7497C69.287 18.0347 68.3219 18.192 67.1423 18.192V20.192C68.4907 20.192 69.7017 20.0133 70.752 19.6263L70.0606 17.7497ZM88.2243 13.6V14.6H89.1503L89.2214 13.6767L88.2243 13.6ZM78.4563 13.6V12.6H77.2124L77.4797 13.8149L78.4563 13.6ZM79.7043 15.496L80.2818 14.6796L80.2818 14.6796L79.7043 15.496ZM83.9283 15.904L84.2794 16.8403L84.2872 16.8374L84.2948 16.8344L83.9283 15.904ZM85.3923 14.944L86.1274 14.2661L85.4342 13.5144L84.6982 14.2242L85.3923 14.944ZM87.3843 17.104L88.1374 17.7619L88.7279 17.0859L88.1194 16.4261L87.3843 17.104ZM78.1923 18.352L77.7349 19.2413L77.7451 19.2464L78.1923 18.352ZM75.6003 15.976L74.744 16.4925L74.744 16.4925L75.6003 15.976ZM75.5763 9.136L74.7164 8.62546L74.714 8.62958L75.5763 9.136ZM78.0483 6.76L78.5224 7.64048L78.5272 7.63789L78.0483 6.76ZM85.0083 6.712L85.4775 5.82888L85.4775 5.82888L85.0083 6.712ZM87.4083 9.064L86.5367 9.55426L86.5413 9.56238L86.546 9.57042L87.4083 9.064ZM79.4643 9.448L78.8241 8.67978L78.8241 8.67978L79.4643 9.448ZM78.4083 11.416L77.4199 11.2639L77.2427 12.416H78.4083V11.416ZM84.7683 11.416V12.416H85.9374L85.7562 11.261L84.7683 11.416ZM83.7123 9.472L83.0598 10.2298L83.0659 10.235L83.0721 10.2402L83.7123 9.472ZM87.2963 12.592C87.2963 12.5657 87.2975 12.5599 87.2938 12.6196C87.291 12.6633 87.2868 12.7259 87.2809 12.8088C87.269 12.974 87.2512 13.2119 87.2273 13.5233L89.2214 13.6767C89.2665 13.0897 89.2963 12.6907 89.2963 12.592H87.2963ZM88.2243 12.6H78.4563V14.6H88.2243V12.6ZM77.4797 13.8149C77.708 14.8529 78.2632 15.7015 79.1268 16.3124L80.2818 14.6796C79.8334 14.3625 79.5566 13.9471 79.433 13.3851L77.4797 13.8149ZM79.1268 16.3124C79.9852 16.9195 81.0147 17.192 82.1523 17.192V15.192C81.338 15.192 80.7354 15.0005 80.2818 14.6796L79.1268 16.3124ZM82.1523 17.192C82.9177 17.192 83.6327 17.0828 84.2794 16.8403L83.5772 14.9677C83.1999 15.1092 82.7309 15.192 82.1523 15.192V17.192ZM84.2948 16.8344C84.9561 16.5739 85.5533 16.178 86.0864 15.6638L84.6982 14.2242C84.3354 14.574 83.9565 14.8181 83.5618 14.9736L84.2948 16.8344ZM84.6572 15.6219L86.6492 17.7819L88.1194 16.4261L86.1274 14.2661L84.6572 15.6219ZM86.6312 16.4461C85.6531 17.5658 84.1856 18.192 82.0563 18.192V20.192C84.599 20.192 86.6836 19.4262 88.1374 17.7619L86.6312 16.4461ZM82.0563 18.192C80.7303 18.192 79.5997 17.9377 78.6395 17.4576L77.7451 19.2464C79.0249 19.8863 80.4703 20.192 82.0563 20.192V18.192ZM78.6497 17.4627C77.6826 16.9654 76.962 16.2975 76.4566 15.4595L74.744 16.4925C75.4546 17.6705 76.462 18.5866 77.735 19.2413L78.6497 17.4627ZM76.4566 15.4595C75.9508 14.6209 75.6883 13.6584 75.6883 12.544H73.6883C73.6883 13.9896 74.0339 15.3151 74.744 16.4925L76.4566 15.4595ZM75.6883 12.544C75.6883 11.4431 75.9441 10.4845 76.4386 9.64242L74.714 8.62958C74.0246 9.80352 73.6883 11.1169 73.6883 12.544H75.6883ZM76.4362 9.64654C76.9523 8.77721 77.6436 8.1137 78.5224 7.64047L77.5742 5.87953C76.3731 6.5263 75.4163 7.44679 74.7165 8.62546L76.4362 9.64654ZM78.5272 7.63789C79.425 7.14816 80.4343 6.896 81.5763 6.896V4.896C80.1263 4.896 78.7836 5.21984 77.5695 5.8821L78.5272 7.63789ZM81.5763 6.896C82.6918 6.896 83.6724 7.13464 84.5392 7.59512L85.4775 5.82888C84.2962 5.20136 82.9888 4.896 81.5763 4.896V6.896ZM84.5392 7.59512C85.3918 8.0481 86.0532 8.69467 86.5367 9.55426L88.2799 8.57374C87.6114 7.38533 86.6728 6.4639 85.4775 5.82888L84.5392 7.59512ZM86.546 9.57042C87.0351 10.4031 87.2963 11.399 87.2963 12.592H89.2963C89.2963 11.097 88.9656 9.74089 88.2706 8.55758L86.546 9.57042ZM81.6003 7.728C80.5509 7.728 79.6033 8.03044 78.8241 8.67978L80.1045 10.2162C80.4773 9.90556 80.9537 9.728 81.6003 9.728V7.728ZM78.8241 8.67978C78.0376 9.33523 77.5801 10.2227 77.4199 11.2639L79.3967 11.5681C79.4925 10.9453 79.739 10.5208 80.1045 10.2162L78.8241 8.67978ZM78.4083 12.416H84.7683V10.416H78.4083V12.416ZM85.7562 11.261C85.5947 10.2314 85.1345 9.35541 84.3525 8.70378L83.0721 10.2402C83.4422 10.5486 83.6859 10.9686 83.7804 11.571L85.7562 11.261ZM84.3648 8.71423C83.5897 8.04675 82.6474 7.728 81.6003 7.728V9.728C82.2172 9.728 82.6829 9.90524 83.0598 10.2298L84.3648 8.71423Z" fill="black"/>
</svg>
